<?xml version="1.0" encoding="utf-8"?>
<svg width="115px" height="115px" viewBox="0 0 115 115" version="1.1" xmlns:xlink="http://www.w3.org/1999/xlink" xmlns="http://www.w3.org/2000/svg">
  <path d="M0 57.5C0 89.2564 25.7436 115 57.5 115C89.2564 115 115 89.2564 115 57.5C115 46.7635 112.057 36.7143 106.935 28.1149L107 28L106.866 28C96.8217 11.2277 78.472 0 57.5 0C36.528 0 18.1783 11.2277 8.13394 28L8 28L8.06535 28.1149C2.94262 36.7143 0 46.7635 0 57.5ZM8.06535 28.1149L57.5 115L106.935 28.1149C106.912 28.0765 106.889 28.0383 106.866 28L8.13394 28C8.11103 28.0383 8.08817 28.0765 8.06535 28.1149ZM78.2257 57.5C78.2257 68.9465 68.9465 78.2257 57.5 78.2257C46.0535 78.2257 36.7743 68.9465 36.7743 57.5C36.7743 46.0535 46.0535 36.7743 57.5 36.7743C68.9465 36.7743 78.2257 46.0535 78.2257 57.5Z" id="Icon" fill="#8FD0F8" fill-rule="evenodd" stroke="none" />
</svg>