<svg width="60px" height="60px" viewBox="0 0 60 60" version="1.1" xmlns:xlink="http://www.w3.org/1999/xlink" xmlns="http://www.w3.org/2000/svg">
  <defs>
    <path d="M0 0L60 0L60 60L0 60L0 0Z" id="path_1" />
    <clipPath id="mask_1">
      <use xlink:href="#path_1" />
    </clipPath>
  </defs>
  <g id="Twitter-Icon">
    <path d="M0 0L60 0L60 60L0 60L0 0Z" id="Background" fill="#FFFFFF" fill-opacity="0" fill-rule="evenodd" stroke="none" />
    <g clip-path="url(#mask_1)">
      <g id="Group" transform="translate(2.3424911 6.8801107)">
        <path d="M56.765 5.4625C54.6775 6.3875 52.435 7.0125 50.0775 7.295C52.4825 5.855 54.3275 3.57 55.1975 0.85C52.9475 2.185 50.455 3.155 47.8025 3.675C45.6775 1.415 42.6525 0 39.3025 0C32.8725 0 27.6575 5.215 27.6575 11.65C27.6575 12.56 27.7625 13.445 27.9575 14.3C18.275 13.8125 9.6975 9.175 3.9525 2.13C2.9525 3.855 2.3775 5.855 2.3775 7.985C2.3775 12.025 4.435 15.5925 7.5575 17.68C5.6475 17.6175 3.8525 17.095 2.2825 16.2225L2.2825 16.3725C2.2825 22.015 6.295 26.7225 11.625 27.7925C10.645 28.0575 9.6175 28.1975 8.5575 28.1975C7.8075 28.1975 7.075 28.1275 6.365 27.9925C7.8475 32.6175 12.1475 35.9875 17.245 36.0775C13.2575 39.2025 8.235 41.065 2.78 41.065C1.84 41.065 0.9125 41.01 0 40.9025C5.155 44.21 11.275 46.135 17.85 46.135C39.275 46.135 50.9875 28.39 50.9875 13C50.9875 12.5 50.975 11.995 50.9525 11.495C53.2275 9.85 55.2025 7.8025 56.76 5.47001L56.765 5.4625Z" id="Shape" fill="#1D9BF0" fill-rule="evenodd" stroke="none" />
      </g>
    </g>
  </g>
</svg>